<svg width="1032" height="282" viewBox="0 0 1032 282" fill="none" xmlns="http://www.w3.org/2000/svg">
<g clip-path="url(#clip0_1244_55121)">
<g clip-path="url(#clip1_1244_55121)">
<g clip-path="url(#clip2_1244_55121)">
<g clip-path="url(#clip3_1244_55121)">
<mask id="mask0_1244_55121" style="mask-type:luminance" maskUnits="userSpaceOnUse" x="15" y="-72" width="1070" height="425">
<path d="M15 -72H1085V353H15V-72Z" fill="white"/>
</mask>
<g mask="url(#mask0_1244_55121)">
<path opacity="0.2" d="M891.773 160.046L888.669 202.251L847.116 224.529L781.773 229.208L730.188 233.247L733.086 145.102L891.773 160.046Z" fill="black"/>
<path d="M641.805 150.461L739.705 93.8047L827.841 144.81L729.941 201.466L641.805 150.461Z" fill="#1F1F1F"/>
<path d="M641.773 103.417L688.73 17.3691L777.071 68.5606L730.103 154.631L641.773 103.417Z" fill="#585858"/>
<path fill-rule="evenodd" clip-rule="evenodd" d="M689.089 34.1906L655.727 95.3254C654.996 96.6651 654.817 98.2384 655.228 99.7086C655.64 101.179 656.609 102.429 657.928 103.193L721.734 140.118C722.407 140.507 723.151 140.758 723.922 140.855C724.693 140.952 725.475 140.894 726.224 140.684C726.972 140.474 727.671 140.116 728.279 139.631C728.887 139.146 729.393 138.545 729.766 137.862L763.136 76.7096C763.867 75.3698 764.046 73.7963 763.635 72.3258C763.224 70.8553 762.254 69.6045 760.935 68.8411L697.12 31.9322C696.447 31.5432 695.703 31.2928 694.932 31.1959C694.161 31.0989 693.379 31.1573 692.63 31.3677C691.882 31.5781 691.184 31.9362 690.575 32.4209C689.967 32.9057 689.462 33.5073 689.089 34.1906Z" fill="#1F1F1F"/>
<path d="M660.236 95.0741L693.598 33.9393C694.176 32.8743 695.072 32.0173 696.161 31.4885C694.854 31.0226 693.424 31.0387 692.128 31.5339C690.832 32.0292 689.755 32.9712 689.089 34.1909L655.727 95.3257C654.996 96.6654 654.817 98.2387 655.228 99.7089C655.64 101.179 656.609 102.43 657.928 103.193L721.734 140.119C722.56 140.598 723.491 140.866 724.444 140.9C725.398 140.933 726.345 140.732 727.203 140.313C726.87 140.193 726.549 140.044 726.243 139.867L662.436 102.942C661.117 102.178 660.148 100.927 659.737 99.457C659.326 97.9868 659.505 96.4138 660.236 95.0741Z" fill="#131313"/>
<path d="M688.73 17.4412L739.511 -11.7324L827.667 39.2425L777.086 68.5435L688.73 17.4412Z" fill="#484848"/>
<path d="M702.843 21.1462C700.078 19.5465 700.086 16.9493 702.856 15.3526C705.616 13.7628 710.083 13.7618 712.839 15.3546C715.601 16.9503 715.598 19.5424 712.839 21.1402C710.081 22.738 705.604 22.742 702.843 21.1462Z" fill="#2D2D2D"/>
<path d="M702.751 19.4788C699.986 17.881 699.99 15.2869 702.759 13.6912L702.898 13.611C705.656 12.0212 710.118 12.0232 712.872 13.615C715.633 15.2107 715.636 17.7998 712.877 19.3966L712.739 19.4768C709.982 21.0735 705.51 21.0745 702.751 19.4788Z" fill="#585858"/>
<path d="M777.057 68.5163L827.656 39.2344V180.466L777.057 209.747L728.455 232.168L722.824 195.258L729.909 154.609L777.057 68.5163Z" fill="#1C1C1C"/>
<path d="M755.467 51.0958C753.869 50.1726 753.871 48.6731 755.472 47.7509L770.992 38.8129C772.586 37.8947 775.164 37.8957 776.755 38.8159L795.405 49.5952C797 50.5174 797.001 52.0129 795.408 52.9361L779.927 61.9012C778.334 62.8234 775.75 62.8244 774.156 61.9022L755.467 51.0958Z" fill="#2D2D2D"/>
<path d="M755.579 48.8868C753.981 47.9636 753.984 46.4641 755.585 45.5419L771.104 36.6039C772.699 35.6857 775.276 35.6867 776.867 36.6069L795.517 47.3863C797.112 48.3084 797.114 49.8039 795.52 50.7271L780.04 59.6912C778.446 60.6144 775.863 60.6144 774.268 59.6932L755.579 48.8868Z" fill="#585858"/>
<path d="M641.773 103.398L729.937 154.444V233.09L641.773 182.068V103.398Z" fill="#303030"/>
<path d="M641.777 103.396L729.941 154.441V233.292L641.777 182.271V103.396Z" fill="#303030"/>
<path d="M649.281 141.814C649.281 139.357 651.002 138.362 653.125 139.592L669.054 148.818C670.196 149.48 671.122 151.088 671.122 152.41V188.625C671.122 189.947 670.195 190.483 669.053 189.822L651.35 179.578C650.207 178.916 649.281 177.308 649.281 175.985V141.814Z" fill="#1F1F1F"/>
<path d="M649.281 140.901C649.281 139.578 650.208 139.041 651.351 139.704L667.689 149.168C668.831 149.83 669.756 151.438 669.756 152.759V187.835C669.756 189.158 668.83 189.694 667.688 189.033L651.35 179.578C650.207 178.916 649.281 177.308 649.281 175.986V140.901Z" fill="#262626"/>
<path d="M711.73 162.822C711.73 160.529 713.339 159.601 715.32 160.752C717.296 161.9 718.897 164.681 718.897 166.969V207.402C718.897 209.692 717.293 210.62 715.314 209.476C713.335 208.33 711.73 205.545 711.73 203.254V162.822Z" fill="#131313"/>
<path d="M714.287 160.116C714.178 160.45 714.119 160.838 714.119 161.277V201.782C714.119 204.073 715.724 206.858 717.702 208.003C718.059 208.21 718.404 208.349 718.729 208.425C718.268 209.833 716.913 210.262 715.314 209.337C713.335 208.191 711.73 205.407 711.73 203.117V162.611C711.73 160.733 712.809 159.771 714.287 160.116Z" fill="#1F1F1F"/>
<path d="M654 132.388C656.984 134.114 659.402 132.715 659.402 129.261C659.402 125.808 656.984 121.609 654 119.882C651.016 118.156 648.598 119.555 648.598 123.009C648.598 126.462 651.016 130.661 654 132.388Z" fill="#1F1F1F"/>
<path d="M652.633 133.071C655.616 134.798 658.035 133.398 658.035 129.945C658.035 126.492 655.616 122.292 652.633 120.566C649.649 118.839 647.23 120.239 647.23 123.692C647.23 127.145 649.649 131.345 652.633 133.071Z" fill="#4A4A4A"/>
<path d="M667.656 140.597C670.64 142.323 673.058 140.924 673.058 137.47C673.058 134.017 670.64 129.818 667.656 128.091C664.673 126.365 662.254 127.764 662.254 131.218C662.254 134.671 664.673 138.87 667.656 140.597Z" fill="#1F1F1F"/>
<path d="M666.289 141.28C669.273 143.007 671.691 141.607 671.691 138.154C671.691 134.701 669.273 130.501 666.289 128.775C663.305 127.048 660.887 128.448 660.887 131.901C660.887 135.354 663.305 139.554 666.289 141.28Z" fill="#4A4A4A"/>
<path d="M729.941 154.702L825.771 99.2441V177.265L729.941 232.723V154.702Z" fill="#1F1F1F"/>
<path d="M729.941 154.702L825.771 99.2441V178.031L729.941 233.489V154.702Z" fill="#1C1C1C"/>
<path d="M818.823 115.121L773.571 141.31C772.591 141.876 771.797 143.255 771.797 144.389V196.834C771.797 197.968 772.591 198.427 773.571 197.861L818.823 171.672C819.803 171.106 820.597 169.727 820.597 168.593V116.148C820.597 115.014 819.803 114.555 818.823 115.121Z" fill="#252525"/>
<path d="M611.676 187.611L757.025 271.725C760.851 273.939 760.851 277.529 757.025 279.744L691.133 317.876C687.307 320.09 681.103 320.09 677.277 317.876L531.928 233.762C528.102 231.547 528.102 227.957 531.928 225.743L597.82 187.611C601.646 185.396 607.85 185.396 611.676 187.611Z" fill="black" fill-opacity="0.1"/>
<path d="M587.676 183.601L733.025 267.715C736.851 269.93 736.851 273.52 733.025 275.734L667.133 313.866C663.307 316.081 657.103 316.081 653.277 313.866L507.928 229.752C504.102 227.538 504.102 223.947 507.928 221.733L573.82 183.601C577.646 181.386 583.85 181.386 587.676 183.601Z" fill="#262626"/>
<path d="M653.276 317.377L507.929 233.262C505.997 232.144 505.04 230.675 505.059 229.209L505.055 214.174L735.894 260.282L735.893 275.318C735.857 276.741 734.901 278.157 733.025 279.244L667.133 317.377C663.306 319.591 657.103 319.591 653.276 317.377Z" fill="#1F1F1F"/>
<path d="M587.676 171.923L733.025 256.037C736.851 258.252 736.851 261.842 733.025 264.056L667.133 302.189C663.307 304.403 657.103 304.403 653.277 302.189L507.928 218.074C504.102 215.86 504.102 212.27 507.928 210.055L573.82 171.923C577.646 169.709 583.85 169.709 587.676 171.923Z" fill="#303030"/>
<path d="M588.635 170.571L731.126 253.032C734.953 255.246 734.953 258.836 731.126 261.05L667.135 298.083C663.309 300.297 657.105 300.297 653.279 298.083L510.788 215.622C506.961 213.407 506.961 209.817 510.788 207.603L574.779 170.571C578.605 168.356 584.809 168.356 588.635 170.571Z" fill="#484848"/>
<path d="M588.635 168.565L731.126 251.026C734.953 253.24 734.953 256.83 731.126 259.045L667.135 296.077C663.309 298.291 657.105 298.291 653.279 296.077L510.788 213.616C506.961 211.401 506.961 207.811 510.788 205.597L574.779 168.565C578.605 166.35 584.809 166.35 588.635 168.565Z" fill="#585858"/>
<path d="M603.427 213.869L613.692 219.81C615.605 220.917 615.605 222.712 613.692 223.819L602.791 230.128C600.877 231.235 597.775 231.235 595.862 230.128L585.597 224.188C583.684 223.08 583.684 221.285 585.597 220.178L596.499 213.869C598.412 212.762 601.514 212.762 603.427 213.869Z" fill="#484848"/>
<path d="M623.332 225.39L634.188 231.673C636.101 232.78 636.101 234.575 634.188 235.682L623.287 241.991C621.373 243.098 618.272 243.098 616.358 241.991L605.502 235.709C603.589 234.601 603.589 232.806 605.502 231.699L616.403 225.39C618.317 224.283 621.418 224.283 623.332 225.39Z" fill="#484848"/>
<path d="M582.626 201.833L593.774 208.284C595.687 209.392 595.687 211.187 593.774 212.294L582.873 218.603C580.959 219.71 577.858 219.71 575.944 218.603L564.796 212.151C562.883 211.044 562.883 209.249 564.796 208.142L575.698 201.833C577.611 200.725 580.713 200.725 582.626 201.833Z" fill="#484848"/>
<path d="M561.516 189.615L572.579 196.017C574.492 197.124 574.492 198.919 572.579 200.026L561.677 206.335C559.764 207.442 556.662 207.442 554.749 206.335L543.686 199.933C541.773 198.826 541.773 197.031 543.686 195.924L554.588 189.615C556.501 188.508 559.603 188.508 561.516 189.615Z" fill="#484848"/>
<path d="M643.809 237.24L654.821 243.612C656.734 244.72 656.734 246.515 654.821 247.622L643.919 253.931C642.006 255.038 638.904 255.038 636.991 253.931L625.98 247.558C624.066 246.451 624.066 244.656 625.98 243.549L636.881 237.24C638.794 236.133 641.896 236.133 643.809 237.24Z" fill="#484848"/>
<path d="M665.369 249.709L698.141 268.675C700.055 269.782 700.055 271.577 698.141 272.684L687.24 278.993C685.327 280.1 682.225 280.1 680.312 278.993L647.539 260.028C645.626 258.92 645.626 257.125 647.539 256.018L658.441 249.709C660.354 248.602 663.456 248.602 665.369 249.709Z" fill="#484848"/>
<path d="M562.208 213.156L573.446 219.659C575.359 220.767 575.359 222.562 573.446 223.669L562.544 229.978C560.631 231.085 557.529 231.085 555.616 229.978L544.379 223.474C542.465 222.367 542.465 220.572 544.379 219.465L555.28 213.156C557.193 212.049 560.295 212.049 562.208 213.156Z" fill="#484848"/>
<path d="M541.053 200.912L551.966 207.228C553.879 208.335 553.879 210.13 551.966 211.237L541.064 217.546C539.151 218.653 536.049 218.653 534.136 217.546L523.223 211.231C521.31 210.123 521.31 208.328 523.223 207.221L534.124 200.912C536.038 199.805 539.14 199.805 541.053 200.912Z" fill="#484848"/>
<path d="M645.971 261.631L657.059 268.048C658.972 269.155 658.972 270.95 657.059 272.057L646.158 278.366C644.245 279.473 641.143 279.473 639.229 278.366L628.141 271.949C626.228 270.842 626.228 269.047 628.141 267.94L639.042 261.631C640.956 260.524 644.057 260.524 645.971 261.631Z" fill="#484848"/>
<path d="M667.097 273.856L677.969 280.148C679.883 281.255 679.883 283.05 677.969 284.157L667.068 290.466C665.155 291.573 662.053 291.573 660.14 290.466L649.268 284.174C647.354 283.067 647.354 281.272 649.268 280.165L660.169 273.856C662.082 272.749 665.184 272.749 667.097 273.856Z" fill="#484848"/>
<path d="M582.878 225.119L635.766 255.726C637.68 256.833 637.68 258.628 635.766 259.735L624.865 266.044C622.952 267.151 619.85 267.151 617.937 266.044L565.048 235.437C563.135 234.33 563.135 232.535 565.048 231.428L575.95 225.119C577.863 224.012 580.965 224.012 582.878 225.119Z" fill="#484848"/>
<path d="M580.759 177.588L613.438 196.499C615.351 197.606 615.351 199.401 613.438 200.509L602.537 206.817C600.623 207.925 597.522 207.925 595.608 206.817L562.93 187.906C561.016 186.799 561.016 185.004 562.93 183.897L573.831 177.588C575.744 176.481 578.846 176.481 580.759 177.588Z" fill="#484848"/>
<path d="M666.091 226.901L676.356 232.841C678.269 233.948 678.269 235.743 676.356 236.85L665.455 243.159C663.541 244.266 660.44 244.266 658.526 243.159L648.261 237.219C646.348 236.112 646.348 234.317 648.261 233.209L659.163 226.901C661.076 225.793 664.178 225.793 666.091 226.901Z" fill="#484848"/>
<path d="M686 238.42L696.856 244.702C698.769 245.809 698.769 247.605 696.856 248.712L685.955 255.021C684.041 256.128 680.94 256.128 679.026 255.021L668.17 248.738C666.257 247.631 666.257 245.836 668.17 244.728L679.071 238.42C680.985 237.312 684.086 237.312 686 238.42Z" fill="#484848"/>
<path d="M645.29 214.864L656.438 221.316C658.351 222.423 658.351 224.218 656.438 225.325L645.537 231.634C643.623 232.741 640.522 232.741 638.608 231.634L627.46 225.182C625.547 224.075 625.547 222.28 627.46 221.173L638.362 214.864C640.275 213.757 643.377 213.757 645.29 214.864Z" fill="#484848"/>
<path d="M624.184 202.646L635.247 209.048C637.16 210.155 637.16 211.95 635.247 213.057L624.345 219.366C622.432 220.473 619.33 220.473 617.417 219.366L606.354 212.964C604.441 211.857 604.441 210.062 606.354 208.955L617.256 202.646C619.169 201.539 622.271 201.539 624.184 202.646Z" fill="#484848"/>
<path d="M706.477 250.271L717.489 256.644C719.402 257.751 719.402 259.546 717.489 260.653L706.587 266.962C704.674 268.069 701.572 268.069 699.659 266.962L688.648 260.59C686.734 259.482 686.734 257.687 688.648 256.58L699.549 250.271C701.462 249.164 704.564 249.164 706.477 250.271Z" fill="#484848"/>
<path d="M603.427 211.865L613.692 217.806C615.605 218.913 615.605 220.708 613.692 221.815L602.791 228.124C600.877 229.231 597.775 229.231 595.862 228.124L585.597 222.184C583.684 221.076 583.684 219.281 585.597 218.174L596.499 211.865C598.412 210.758 601.514 210.758 603.427 211.865Z" fill="#696969"/>
<path d="M623.332 223.384L634.188 229.667C636.101 230.774 636.101 232.569 634.188 233.677L623.287 239.985C621.373 241.093 618.272 241.093 616.358 239.985L605.502 233.703C603.589 232.595 603.589 230.8 605.502 229.693L616.403 223.384C618.317 222.277 621.418 222.277 623.332 223.384Z" fill="#696969"/>
<path d="M582.626 199.827L593.774 206.278C595.687 207.386 595.687 209.181 593.774 210.288L582.873 216.597C580.959 217.704 577.858 217.704 575.944 216.597L564.796 210.145C562.883 209.038 562.883 207.243 564.796 206.136L575.698 199.827C577.611 198.72 580.713 198.72 582.626 199.827Z" fill="#696969"/>
<path d="M561.516 187.611L572.579 194.013C574.492 195.12 574.492 196.915 572.579 198.022L561.677 204.331C559.764 205.438 556.662 205.438 554.749 204.331L543.686 197.929C541.773 196.822 541.773 195.027 543.686 193.92L554.588 187.611C556.501 186.504 559.603 186.504 561.516 187.611Z" fill="#696969"/>
<path d="M643.809 235.234L654.821 241.607C656.734 242.714 656.734 244.509 654.821 245.616L643.919 251.925C642.006 253.032 638.904 253.032 636.991 251.925L625.98 245.552C624.066 244.445 624.066 242.65 625.98 241.543L636.881 235.234C638.794 234.127 641.896 234.127 643.809 235.234Z" fill="#696969"/>
<path d="M665.369 247.705L698.141 266.671C700.055 267.778 700.055 269.573 698.141 270.68L687.24 276.989C685.327 278.097 682.225 278.097 680.312 276.989L647.539 258.024C645.626 256.917 645.626 255.121 647.539 254.014L658.441 247.705C660.354 246.598 663.456 246.598 665.369 247.705Z" fill="#696969"/>
<path d="M562.208 211.15L573.446 217.653C575.359 218.761 575.359 220.556 573.446 221.663L562.544 227.972C560.631 229.079 557.529 229.079 555.616 227.972L544.379 221.468C542.465 220.361 542.465 218.566 544.379 217.459L555.28 211.15C557.193 210.043 560.295 210.043 562.208 211.15Z" fill="#696969"/>
<path d="M541.053 198.908L551.966 205.224C553.879 206.331 553.879 208.126 551.966 209.233L541.064 215.542C539.151 216.649 536.049 216.649 534.136 215.542L523.223 209.227C521.31 208.12 521.31 206.324 523.223 205.217L534.124 198.908C536.038 197.801 539.14 197.801 541.053 198.908Z" fill="#696969"/>
<path d="M645.971 259.625L657.059 266.042C658.972 267.149 658.972 268.944 657.059 270.052L646.158 276.36C644.245 277.468 641.143 277.468 639.229 276.36L628.141 269.943C626.228 268.836 626.228 267.041 628.141 265.934L639.042 259.625C640.956 258.518 644.057 258.518 645.971 259.625Z" fill="#696969"/>
<path d="M667.097 271.852L677.969 278.144C679.883 279.251 679.883 281.046 677.969 282.153L667.068 288.462C665.155 289.569 662.053 289.569 660.14 288.462L649.268 282.17C647.354 281.063 647.354 279.268 649.268 278.161L660.169 271.852C662.082 270.745 665.184 270.745 667.097 271.852Z" fill="#696969"/>
<path d="M582.878 223.113L635.766 253.72C637.68 254.827 637.68 256.622 635.766 257.729L624.865 264.038C622.952 265.145 619.85 265.145 617.937 264.038L565.048 233.431C563.135 232.324 563.135 230.529 565.048 229.422L575.95 223.113C577.863 222.006 580.965 222.006 582.878 223.113Z" fill="#696969"/>
<path d="M580.759 175.582L613.438 194.493C615.351 195.601 615.351 197.396 613.438 198.503L602.537 204.812C600.623 205.919 597.522 205.919 595.608 204.812L562.93 185.9C561.016 184.793 561.016 182.998 562.93 181.891L573.831 175.582C575.744 174.475 578.846 174.475 580.759 175.582Z" fill="#696969"/>
<path d="M666.091 224.897L676.356 230.837C678.269 231.944 678.269 233.739 676.356 234.847L665.455 241.155C663.541 242.263 660.44 242.263 658.526 241.155L648.261 235.215C646.348 234.108 646.348 232.313 648.261 231.205L659.163 224.897C661.076 223.789 664.178 223.789 666.091 224.897Z" fill="#696969"/>
<path d="M686 236.416L696.856 242.698C698.769 243.806 698.769 245.601 696.856 246.708L685.955 253.017C684.041 254.124 680.94 254.124 679.026 253.017L668.17 246.734C666.257 245.627 666.257 243.832 668.17 242.724L679.071 236.416C680.985 235.308 684.086 235.308 686 236.416Z" fill="#696969"/>
<path d="M645.29 212.858L656.438 219.31C658.351 220.417 658.351 222.212 656.438 223.319L645.537 229.628C643.623 230.735 640.522 230.735 638.608 229.628L627.46 223.176C625.547 222.069 625.547 220.274 627.46 219.167L638.362 212.858C640.275 211.751 643.377 211.751 645.29 212.858Z" fill="#696969"/>
<path d="M624.184 200.642L635.247 207.044C637.16 208.151 637.16 209.946 635.247 211.054L624.345 217.362C622.432 218.47 619.33 218.47 617.417 217.362L606.354 210.96C604.441 209.853 604.441 208.058 606.354 206.951L617.256 200.642C619.169 199.535 622.271 199.535 624.184 200.642Z" fill="#696969"/>
<path d="M706.477 248.265L717.489 254.638C719.402 255.745 719.402 257.54 717.489 258.647L706.587 264.956C704.674 266.063 701.572 266.063 699.659 264.956L688.648 258.584C686.734 257.476 686.734 255.681 688.648 254.574L699.549 248.265C701.462 247.158 704.564 247.158 706.477 248.265Z" fill="#696969"/>
</g>
<g clip-path="url(#clip4_1244_55121)">
<path d="M736.643 79.8951L698.898 58.1035L678.637 94.656L716.381 116.448L736.643 79.8951Z" fill="#A4B3EA"/>
<path d="M706.082 94.0716C706.417 92.7655 706.489 90.8006 706.492 89.6115C706.492 89.3497 706.488 89.1257 706.486 88.9532C706.482 88.8504 706.491 88.7549 706.502 88.6675C706.606 87.9426 707.175 87.7103 707.175 87.7103C707.175 87.7103 707.436 87.6467 707.764 87.5241C708.012 87.432 708.295 87.304 708.527 87.1424C708.752 86.987 708.929 86.7943 708.984 86.5741C709.009 86.481 709.052 86.3285 709.12 86.1329C709.716 85.0103 710.141 83.8336 710.404 82.6399C711.712 76.7251 709.054 70.3189 703.478 67.0992C703.373 67.0386 703.265 66.9765 703.157 66.9209C703.137 66.9091 703.114 66.8958 703.089 66.8851C702.65 66.6479 702.202 66.4366 701.747 66.2512C701.724 66.2379 701.701 66.2311 701.677 66.2204C699.478 65.3268 697.161 65.0257 694.93 65.2641L680.729 90.8821L680.717 90.8748L678.627 94.6441L688.628 100.418L689.524 98.5899L689.541 98.5594C690.056 97.5989 691.28 97.282 692.242 97.8378L695.164 99.5245C695.391 99.6758 695.585 99.8013 695.718 99.8781C695.882 99.9727 696.027 100.046 696.168 100.104C696.378 100.188 696.577 100.256 696.8 100.274C697.023 100.293 697.269 100.27 697.566 100.167C698.405 99.8791 698.627 98.5947 698.833 97.9355C699.042 97.2778 699.595 97.1275 700.329 97.0846C701.057 97.0388 700.95 95.9637 700.95 95.9637C701.544 96.3067 702.467 96.0574 702.398 95.4742C702.33 94.8884 703.283 93.878 703.283 93.878C703.283 93.878 705.676 95.6522 706.086 94.064L706.082 94.0716Z" fill="#0021C6"/>
<path d="M727.437 90.2154C722.226 87.2071 715.686 88.94 712.786 94.08L712.775 94.1003C712.765 94.1181 712.755 94.1359 712.745 94.1537C712.452 94.6824 712.208 95.226 712.014 95.7781C711.409 96.4962 710.593 96.6088 709.462 96.5764C707.768 96.528 708.467 98.0656 708.626 98.3414C708.899 98.8114 708.977 98.9334 708.977 98.9334C708.977 98.9334 708.385 99.8602 707.76 99.8481C706.75 99.8286 707.608 101.079 707.608 101.079C707.608 101.079 706.847 100.69 706.835 101.371C706.823 102.008 707.156 102.841 706.631 103.373C706.107 103.91 705.152 105.596 706.85 106.801C708.376 107.682 709.457 108.353 709.972 108.62L709.984 108.628C710.567 108.937 710.765 109.682 710.451 110.249L709.284 112.354L716.38 116.45L729.871 92.1107C729.168 91.3858 728.354 90.7447 727.437 90.2154Z" fill="#0021C6"/>
<path d="M725.315 102.713C722.381 101.013 726.054 94.4102 723.123 92.711C720.191 91.0118 716.515 97.6129 713.581 95.9122C710.647 94.2115 714.321 87.6089 711.387 85.9082C708.452 84.2076 704.779 90.8101 701.845 89.1094C698.911 87.4087 702.584 80.8062 699.65 79.1055C696.716 77.4048 693.043 84.0074 690.109 82.3067C687.175 80.606 690.848 74.0034 687.914 72.3027" stroke="white" stroke-width="3" stroke-miterlimit="10"/>
</g>
</g>
</g>
<g clip-path="url(#clip5_1244_55121)">
<g clip-path="url(#clip6_1244_55121)">
<path d="M878.487 215.673C878.487 203.134 887.247 187.888 898.052 181.619C908.858 175.35 917.617 180.432 917.617 192.97C917.617 205.508 908.858 220.755 898.052 227.024C887.247 233.293 878.487 228.211 878.487 215.673Z" fill="#1F1F1F"/>
<path d="M935.691 203.567C935.691 216.105 926.931 231.351 916.126 237.62C910.471 240.901 905.376 241.072 901.804 238.693L883.635 228.034C880.439 225.848 878.488 221.592 878.488 215.674C878.488 203.136 887.248 187.89 898.053 181.621C903.556 178.429 908.528 178.179 912.082 180.359L930.544 191.207C933.74 193.393 935.691 197.649 935.691 203.567Z" fill="#131313"/>
<path opacity="0.2" d="M1009.13 208.16L1012.54 217.688C1015.76 226.675 1009.29 236.194 999.787 236.453L965.057 237.401C963.619 237.44 962.21 236.994 961.054 236.135C959.898 235.275 959.061 234.051 958.678 232.658C958.443 231.795 958.03 230.992 957.467 230.299C956.904 229.606 956.203 229.04 955.409 228.636C954.615 228.232 953.746 227.999 952.857 227.953C951.968 227.907 951.079 228.049 950.248 228.368C943.516 230.95 935.055 234.107 925.832 236.588C918.174 238.65 911.823 231.406 913.987 223.74C914.902 220.499 917.23 217.841 920.334 216.568C929.926 212.639 939.076 209.446 947.256 209.577C950.974 209.637 954.728 207.518 955.603 203.886C955.946 202.459 956.757 201.19 957.905 200.282C959.052 199.375 960.47 198.881 961.931 198.881H995.999C998.872 198.881 1001.68 199.772 1004.03 201.433C1006.38 203.094 1008.16 205.443 1009.13 208.16Z" fill="black"/>
<path d="M896.561 226.27C896.561 213.732 905.321 198.486 916.126 192.216C926.932 185.947 935.691 191.029 935.691 203.568C935.691 216.106 926.932 231.352 916.126 237.621C905.321 243.891 896.561 238.808 896.561 226.27Z" fill="#1F1F1F"/>
<path d="M925.65 186.917C925.65 184.13 923.704 183 921.302 184.394L912.172 189.691C909.771 191.084 907.824 194.473 907.824 197.259V221.475C907.824 225.654 910.744 227.348 914.346 225.259L919.998 221.979C923.119 220.168 925.651 215.764 925.651 212.141V186.916L925.65 186.917Z" fill="#303030"/>
<path d="M927.657 186.917C927.657 184.13 925.711 183 923.31 184.394L914.178 189.691C911.778 191.084 909.832 194.473 909.832 197.259V221.475C909.832 225.654 912.751 227.348 916.353 225.259L922.005 221.979C925.126 220.168 927.658 215.764 927.658 212.141V186.916L927.657 186.917Z" fill="#484848"/>
<path d="M898.255 215.607L863.179 195.782C860.726 194.396 859.5 192.579 859.5 190.763V166.736H954.766V190.761C954.766 192.578 953.541 194.395 951.089 195.78L922.733 211.811L916.016 215.607C911.111 218.379 903.159 218.379 898.255 215.607Z" fill="#303030"/>
<path d="M951.09 171.869C955.994 169.016 955.994 164.39 951.09 161.536L916.014 141.13C911.109 138.277 903.158 138.277 898.254 141.13L863.179 161.536C858.274 164.39 858.274 169.016 863.179 171.869L898.254 192.275C903.159 195.129 911.109 195.129 916.014 192.275L951.09 171.869Z" fill="#1F1F1F"/>
<path d="M898.255 185.339L863.179 165.514C860.726 164.127 859.5 162.311 859.5 160.495V136.469H954.766V160.495C954.766 162.311 953.54 164.127 951.089 165.514L922.731 181.542L916.014 185.339C911.109 188.111 903.159 188.111 898.255 185.339Z" fill="#303030"/>
<path d="M939.559 172.871C939.559 170.085 937.613 168.955 935.212 170.349L930.671 172.983C928.27 174.376 926.324 177.764 926.324 180.55V196.023C926.324 200.202 929.243 201.896 932.845 199.806L933.908 199.19C937.028 197.379 939.56 192.975 939.56 189.353L939.559 172.871Z" fill="#484848"/>
<path d="M940.81 173.611C940.81 170.825 938.863 169.696 936.463 171.089L931.922 173.723C929.52 175.116 927.574 178.505 927.574 181.291V196.024C927.574 200.203 930.494 201.897 934.096 199.808L935.158 199.191C938.28 197.38 940.81 192.976 940.81 189.353V173.611Z" fill="#606060"/>
<path d="M951.09 141.599C955.994 138.746 955.994 134.121 951.09 131.267L916.014 110.861C911.109 108.007 903.159 108.007 898.254 110.861L863.179 131.267C858.274 134.121 858.274 138.746 863.179 141.6L898.254 162.007C903.159 164.86 911.11 164.86 916.014 162.007L951.09 141.599Z" fill="#484848"/>
<path d="M942.704 140.18C945.461 138.583 945.452 135.987 942.691 134.391C939.94 132.802 935.487 132.801 932.74 134.392C929.987 135.988 929.989 138.58 932.74 140.175C935.489 141.771 939.953 141.775 942.704 140.18Z" fill="#2D2D2D"/>
<path d="M942.796 138.515C945.553 136.917 945.549 134.325 942.788 132.73L942.65 132.65C939.9 131.06 935.452 131.062 932.707 132.654C929.954 134.248 929.951 136.836 932.702 138.431L932.839 138.512C935.589 140.107 940.046 140.108 942.796 138.515Z" fill="#585858"/>
<path d="M866.758 151.617C866.758 149.101 868.516 148.081 870.684 149.34L895.832 163.939C896.999 164.617 897.945 166.264 897.945 167.617V205.667C897.945 207.021 896.998 207.57 895.831 206.893L868.871 191.253C867.705 190.576 866.758 188.929 866.758 187.575V151.617Z" fill="#1F1F1F"/>
<path d="M866.043 151.227C866.043 149.872 866.99 149.324 868.156 150.001L893.836 164.911C895.004 165.588 895.95 167.235 895.95 168.588V204.512C895.95 205.866 895.003 206.416 893.836 205.738L868.156 190.839C866.99 190.162 866.043 188.515 866.043 187.16V151.227Z" fill="#262626"/>
<path d="M884.354 164.611L885.803 165.452C887.003 166.148 887.977 167.842 887.977 169.235V181.137C887.977 182.53 887.003 183.094 885.803 182.398L884.354 181.557C883.153 180.861 882.18 179.167 882.18 177.774V165.872C882.18 164.479 883.153 163.915 884.354 164.611Z" fill="#D9D9D9"/>
<path d="M875.315 159.07L876.764 159.911C877.964 160.607 878.938 162.301 878.938 163.694V175.596C878.938 176.989 877.964 177.553 876.764 176.857L875.315 176.016C874.114 175.32 873.141 173.626 873.141 172.233V160.331C873.141 158.938 874.114 158.374 875.315 159.07Z" fill="#D9D9D9"/>
</g>
</g>
</g>
</g>
<defs>
<clipPath id="clip0_1244_55121">
<rect width="1070" height="339.59" fill="white" transform="translate(0 -29)"/>
</clipPath>
<clipPath id="clip1_1244_55121">
<rect width="1070" height="425" fill="white" transform="translate(0 -71.6992)"/>
</clipPath>
<clipPath id="clip2_1244_55121">
<rect width="1070" height="425" fill="white" transform="translate(0 -71.6992)"/>
</clipPath>
<clipPath id="clip3_1244_55121">
<rect width="1070" height="425" fill="white" transform="translate(15 -72)"/>
</clipPath>
<clipPath id="clip4_1244_55121">
<rect width="44" height="42" fill="white" transform="matrix(0.866025 0.5 -0.48481 0.87462 698.719 58)"/>
</clipPath>
<clipPath id="clip5_1244_55121">
<rect width="160.5" height="140.25" fill="white" transform="translate(859.5 108.721)"/>
</clipPath>
<clipPath id="clip6_1244_55121">
<rect width="160.5" height="140.25" fill="white" transform="translate(859.5 108.721)"/>
</clipPath>
</defs>
</svg>
